<svg width="513" height="512" viewBox="0 0 513 512" xmlns="http://www.w3.org/2000/svg">
	<path fill-rule="evenodd" clip-rule="evenodd" d="M391.691 391.367C389.385 393.673 387.002 396.132 384.697 398.515C428.739 351.014 499.529 310.277 499.452 255.935C499.375 201.67 428.739 161.01 384.697 113.586C387.079 115.969 389.385 118.428 391.768 120.657C438.116 165.699 512.673 202.9 512.749 255.935C512.826 308.893 438.116 346.172 391.691 391.29V391.367ZM128.053 398.438C125.747 396.055 123.364 393.673 121.058 391.367C74.5566 346.249 -0.0768031 308.97 5.93214e-05 256.012C0.0769218 202.977 74.7104 165.776 120.982 120.734C123.364 118.351 125.747 115.969 128.053 113.586C84.0876 161.01 13.3741 201.67 13.3741 256.012C13.3741 310.277 84.0876 351.014 128.13 398.515L128.053 398.438ZM142.734 413.426C140.351 411.044 138.045 408.584 135.662 406.201C94.3103 356.087 27.7474 311.814 27.7474 256.012C27.8243 200.133 94.3103 155.86 135.585 105.9C137.968 103.517 140.274 101.057 142.58 98.6746C103.764 151.095 41.0446 198.596 40.9677 256.012C40.8909 313.428 103.611 360.929 142.58 413.426H142.734ZM157.337 428.568C155.032 426.185 152.649 423.726 150.343 421.266C113.987 366.156 55.4947 315.196 55.5716 256.012C55.5716 196.828 114.064 145.868 150.343 90.9115C152.726 88.4519 155.032 85.9923 157.337 83.6096C123.441 141.103 68.8688 195.137 68.8688 256.089C68.8688 317.041 123.441 371.075 157.414 428.645L157.337 428.568ZM172.018 443.864C169.635 441.404 167.33 438.945 164.947 436.485C133.587 376.302 83.1652 318.886 83.2421 256.012C83.319 192.985 133.664 135.722 164.947 75.6159C167.33 73.1563 169.635 70.6967 172.018 68.2371C143.195 130.803 96.693 191.063 96.6162 256.012C96.5393 320.884 143.041 381.221 172.018 443.864ZM186.622 459.313C184.316 456.93 182.01 454.394 179.628 451.934C153.341 386.601 111.066 323.113 111.066 256.012C111.066 188.834 153.418 125.423 179.628 60.1665C182.01 57.7069 184.316 55.2473 186.622 52.7877C162.795 120.504 124.364 186.759 124.287 256.012C124.287 325.188 162.641 391.521 186.622 459.313ZM201.303 474.532C198.92 472.149 196.614 469.767 194.308 467.384C173.017 396.901 138.737 327.571 138.737 256.012C138.737 184.453 173.017 115.123 194.231 44.794C196.614 42.4113 198.92 40.0286 201.226 37.6458C182.395 110.435 151.957 182.378 152.034 256.089C152.034 329.723 182.395 401.743 201.303 474.609V474.532ZM215.907 488.905C213.601 486.753 211.295 484.524 208.912 482.372C192.617 406.893 166.484 332.029 166.484 256.012C166.484 180.072 192.694 105.208 208.835 29.8827C211.218 27.6537 213.524 25.4247 215.907 23.2725C202.071 100.827 179.781 177.997 179.781 256.012C179.781 334.027 202.071 411.274 215.984 488.982L215.907 488.905ZM230.511 501.28C228.282 499.512 225.899 497.668 223.516 495.823C212.294 415.809 194.308 336.026 194.308 255.858C194.308 175.614 212.371 95.9076 223.593 16.0475C225.976 14.2028 228.282 12.5118 230.664 10.6671C221.825 92.3719 207.606 174 207.606 255.935C207.606 337.794 221.825 419.498 230.587 501.28H230.511ZM245.191 510.042C242.809 508.813 240.503 507.66 238.197 506.43C231.894 422.88 221.979 339.408 221.979 255.935C221.979 172.463 231.971 88.9899 238.197 5.59418C240.58 4.36439 242.962 3.13459 245.191 1.98165C241.425 86.6072 235.276 171.31 235.276 255.935C235.276 340.561 241.348 425.263 245.191 510.042ZM259.872 511.657C257.489 512.118 255.183 512.118 252.801 511.657C251.571 426.339 249.649 341.099 249.726 255.935C249.803 170.695 251.648 85.4543 252.878 0.290676C255.26 -0.0936366 257.643 -0.0936366 259.872 0.290676C261.179 85.4543 263.1 170.695 263.1 255.935C263.1 341.099 261.102 426.416 259.949 511.657H259.872ZM274.476 506.353C272.247 507.506 269.864 508.736 267.481 509.966C271.325 425.263 277.474 340.561 277.397 255.935C277.32 171.31 271.248 86.6072 267.405 1.98165C269.787 3.21145 272.093 4.44125 274.476 5.59418C280.702 88.9899 290.694 172.386 290.694 255.935C290.694 339.408 280.625 422.88 274.399 506.353H274.476ZM289.157 495.823C286.774 497.668 284.391 499.435 282.085 501.28C290.924 419.498 305.144 337.794 305.221 255.935C305.221 174.077 291.078 92.4487 282.162 10.744C284.545 12.5118 286.851 14.3565 289.157 16.1243C300.379 96.0613 318.441 175.768 318.518 255.935C318.595 336.103 300.455 415.809 289.233 495.823H289.157ZM303.76 482.218C301.378 484.447 298.995 486.599 296.689 488.828C310.601 411.12 332.814 333.951 332.891 255.858C332.891 177.843 310.678 100.673 296.766 23.1188C299.149 25.3478 301.531 27.5 303.837 29.8059C320.132 105.131 346.265 179.995 346.265 255.935C346.265 331.952 319.978 406.816 303.837 482.295L303.76 482.218ZM318.364 467.307C316.058 469.69 313.676 472.072 311.37 474.455C330.201 401.59 360.562 329.569 360.562 255.935C360.562 182.378 330.278 110.358 311.37 37.569C313.753 39.9517 316.058 42.4113 318.364 44.7172C339.655 115.046 373.859 184.376 373.936 255.858C373.936 327.417 339.655 396.747 318.364 467.23V467.307ZM333.045 451.858C330.662 454.317 328.356 456.777 326.051 459.236C349.955 391.444 388.463 325.111 388.463 255.935C388.463 186.759 350.032 120.504 326.127 52.7877C328.51 55.2473 330.816 57.7069 333.122 60.1665C359.409 125.423 401.683 188.834 401.76 255.935C401.76 323.113 359.409 386.524 333.122 451.858H333.045ZM347.649 436.485C345.343 438.868 342.96 441.327 340.654 443.787C369.555 381.144 416.133 320.807 416.133 255.935C416.133 191.063 369.632 130.803 340.654 68.2371C343.037 70.6967 345.343 73.1563 347.649 75.539C378.932 135.645 429.354 192.908 429.431 255.858C429.431 318.886 379.009 376.225 347.649 436.408V436.485ZM362.33 421.189C359.947 423.649 357.641 426.032 355.335 428.491C389.231 370.921 443.881 316.964 443.881 255.935C443.881 194.983 389.231 141.026 355.335 83.6096C357.718 86.0692 360.024 88.4519 362.33 90.9115C398.686 145.945 457.101 196.828 457.101 255.935C457.101 315.119 398.609 366.079 362.33 421.189ZM376.934 406.201C374.628 408.584 372.245 410.967 369.939 413.349C408.908 360.852 471.628 313.275 471.551 255.935C471.474 198.596 408.908 151.095 369.939 98.6746C372.322 101.057 374.628 103.44 376.934 105.823C418.286 155.86 484.772 200.056 484.848 255.935C484.925 311.814 418.209 356.087 376.934 406.201Z"/>
</svg>
