<svg width="564" height="512" viewBox="0 0 564 512" xmlns="http://www.w3.org/2000/svg">
    <path fill-rule="evenodd" clip-rule="evenodd" d="M176.356 51.2C104.335 51.2 51.2 121.188 51.2 191.488C51.2 225.317 64.3363 259.088 86.2199 291.712C108.083 324.305 137.762 354.358 168.391 380.173C198.925 405.907 229.71 426.85 253.149 441.351C264.851 448.591 274.611 454.157 281.455 457.852C281.503 457.878 281.552 457.904 281.6 457.93C281.648 457.904 281.697 457.878 281.745 457.852C288.589 454.157 298.349 448.591 310.051 441.351C333.49 426.85 364.275 405.907 394.809 380.173C425.438 354.358 455.117 324.305 476.98 291.712C498.864 259.088 512 225.317 512 191.488C512 121.188 458.865 51.2 386.844 51.2C344.828 51.2 317.53 72.1469 301.088 91.4487C296.224 97.1585 289.101 100.448 281.6 100.448C274.099 100.448 266.976 97.1585 262.112 91.4487C245.67 72.1468 218.372 51.2 176.356 51.2ZM0 191.488C0 101.66 68.0381 0 176.356 0C223.128 0 257.692 18.1889 281.6 38.6771C305.508 18.1889 340.072 0 386.844 0C495.162 0 563.2 101.66 563.2 191.488C563.2 238.731 544.905 282.36 519.5 320.234C494.074 358.137 460.606 391.678 427.805 419.323C394.907 447.049 361.977 469.432 336.989 484.892C324.478 492.632 313.846 498.706 306.068 502.905C302.2 504.994 298.912 506.686 296.375 507.914C295.14 508.511 293.854 509.11 292.657 509.613C292.091 509.851 291.222 510.205 290.223 510.544C289.733 510.71 288.907 510.978 287.887 511.23C287.238 511.39 284.768 512 281.6 512C278.432 512 275.98 511.394 275.331 511.234C274.31 510.982 273.467 510.71 272.977 510.544C271.978 510.205 271.109 509.851 270.543 509.613C269.346 509.11 268.06 508.511 266.825 507.914C264.288 506.686 261 504.994 257.132 502.905C249.354 498.706 238.722 492.632 226.211 484.892C201.223 469.432 168.293 447.049 135.395 419.323C102.594 391.678 69.1257 358.137 43.7001 320.234C18.2948 282.36 0 238.731 0 191.488Z"/>
</svg>
