<svg width="512" height="512" viewBox="0 0 512 512" xmlns="http://www.w3.org/2000/svg">
    <path fill-rule="evenodd" clip-rule="evenodd" d="M11.4377 11.4377C26.688 -3.81258 51.4137 -3.81258 66.664 11.4377L256 200.774L445.336 11.4377C460.586 -3.81258 485.312 -3.81258 500.562 11.4377C515.813 26.688 515.813 51.4137 500.562 66.664L311.226 256L500.562 445.336C515.813 460.586 515.813 485.312 500.562 500.562C485.312 515.813 460.586 515.813 445.336 500.562L256 311.226L66.664 500.562C51.4137 515.813 26.688 515.813 11.4377 500.562C-3.81258 485.312 -3.81258 460.586 11.4377 445.336L200.774 256L11.4377 66.664C-3.81258 51.4137 -3.81258 26.688 11.4377 11.4377Z"/>
</svg>
