<svg width="512" height="512" viewBox="0 0 512 512" xmlns="http://www.w3.org/2000/svg">
    <path fill-rule="evenodd" clip-rule="evenodd" d="M256 46.5455C140.321 46.5455 46.5455 140.321 46.5455 256C46.5455 371.679 140.321 465.455 256 465.455C371.679 465.455 465.455 371.679 465.455 256C465.455 140.321 371.679 46.5455 256 46.5455ZM0 256C0 114.615 114.615 0 256 0C397.385 0 512 114.615 512 256C512 397.385 397.385 512 256 512C114.615 512 0 397.385 0 256ZM256 93.0909C268.853 93.0909 279.273 103.51 279.273 116.364V241.617L359.499 281.73C370.995 287.478 375.655 301.457 369.907 312.953C364.159 324.45 350.179 329.109 338.683 323.361L245.592 276.816C237.708 272.874 232.727 264.815 232.727 256V116.364C232.727 103.51 243.147 93.0909 256 93.0909Z"/>
</svg>
