<svg width="514" height="512" viewBox="0 0 514 512" xmlns="http://www.w3.org/2000/svg">
	<path fill-rule="evenodd" clip-rule="evenodd" d="M507.468 505.859C499.424 513.987 486.314 514.056 478.186 506.012L330.296 359.662L359.425 330.226L507.315 476.576C515.443 484.62 515.512 497.73 507.468 505.859Z"/>
	<path fill-rule="evenodd" clip-rule="evenodd" d="M202.918 355.106C286.969 355.106 355.106 286.969 355.106 202.918C355.106 118.866 286.969 50.7294 202.918 50.7294C118.866 50.7294 50.7294 118.866 50.7294 202.918C50.7294 286.969 118.866 355.106 202.918 355.106ZM202.918 405.835C314.986 405.835 405.835 314.986 405.835 202.918C405.835 90.8493 314.986 0 202.918 0C90.8493 0 0 90.8493 0 202.918C0 314.986 90.8493 405.835 202.918 405.835Z"/>
</svg>
