<svg width="128" height="512" viewBox="0 0 128 512" xmlns="http://www.w3.org/2000/svg">
    <path fill-rule="evenodd" clip-rule="evenodd" d="M128 64C128 99.3462 99.3462 128 64 128C28.6538 128 0 99.3462 0 64C0 28.6538 28.6538 0 64 0C99.3462 0 128 28.6538 128 64ZM64 192C28.6538 192 0 220.654 0 256V448C0 483.346 28.6538 512 64 512C99.3462 512 128 483.346 128 448V256C128 220.654 99.3462 192 64 192Z"/>
    <path d="M64 192C28.6538 192 0 220.654 0 256V448C0 483.346 28.6538 512 64 512C99.3462 512 128 483.346 128 448V256C128 220.654 99.3462 192 64 192Z"/>
    <path d="M128 64C128 99.3462 99.3462 128 64 128C28.6538 128 0 99.3462 0 64C0 28.6538 28.6538 0 64 0C99.3462 0 128 28.6538 128 64Z"/>
</svg>
