<svg width="640" height="512" viewBox="0 0 640 512"  xmlns="http://www.w3.org/2000/svg">
    <path fill-rule="evenodd" clip-rule="evenodd" d="M512 64C476.654 64 448 92.6538 448 128C448 163.346 476.654 192 512 192C547.346 192 576 163.346 576 128C576 92.6538 547.346 64 512 64ZM388.033 96C402.242 40.7928 452.357 0 512 0C582.692 0 640 57.3075 640 128C640 198.692 582.692 256 512 256C452.357 256 402.242 215.207 388.033 160L32 160C14.3269 160 0 145.673 0 128C1.90735e-06 110.327 14.3269 96 32 96L388.033 96ZM128 320C92.6538 320 64 348.654 64 384C64 419.346 92.6538 448 128 448C163.346 448 192 419.346 192 384C192 348.654 163.346 320 128 320ZM0 384C0 313.308 57.3075 256 128 256C187.643 256 237.758 296.793 251.967 352L608 352C625.673 352 640 366.327 640 384C640 401.673 625.673 416 608 416L251.967 416C237.758 471.207 187.643 512 128 512C57.3075 512 0 454.692 0 384Z"/>
</svg>
