<svg width="513" height="513" viewBox="0 0 513 513" fill="none" xmlns="http://www.w3.org/2000/svg">
<path fill-rule="evenodd" clip-rule="evenodd" d="M244.343 35.9709C129.262 35.9709 35.9709 129.262 35.9709 244.343C35.9709 359.424 129.262 452.715 244.343 452.715C359.424 452.715 452.715 359.424 452.715 244.343C452.715 129.262 359.424 35.9709 244.343 35.9709ZM0.25 244.343C0.25 109.534 109.534 0.25 244.343 0.25C379.152 0.25 488.436 109.534 488.436 244.343C488.436 379.152 379.152 488.436 244.343 488.436C109.534 488.436 0.25 379.152 0.25 244.343ZM434.132 434.132C441.107 427.157 452.416 427.157 459.391 434.132L507.019 481.76C513.994 488.735 513.994 500.044 507.019 507.019C500.044 513.994 488.735 513.994 481.76 507.019L434.132 459.391C427.157 452.416 427.157 441.107 434.132 434.132Z" fill="#818181"/>
</svg>
