<svg width="512" height="512" viewBox="0 0 512 512" xmlns="http://www.w3.org/2000/svg">
	<path fill-rule="evenodd" clip-rule="evenodd" d="M503.967 503.975C493.268 514.674 475.921 514.674 465.222 503.975L8.02446 46.7707C-2.67482 36.0713 -2.67482 18.724 8.02446 8.02458C18.7237 -2.67486 36.0707 -2.67486 46.77 8.02458L503.967 465.229C514.667 475.928 514.667 493.275 503.967 503.975Z"/>
	<path fill-rule="evenodd" clip-rule="evenodd" d="M503.976 8.02513C514.675 18.7246 514.675 36.0718 503.976 46.7712L46.7782 503.975C36.079 514.675 18.732 514.675 8.03272 503.975C-2.66657 493.276 -2.66657 475.929 8.03272 465.229L465.23 8.02513C475.929 -2.67432 493.276 -2.67432 503.976 8.02513Z"/>
</svg>
